# xmcd
#
# Track frame offsets: 
#        150
#        13243
#        29051
#        41732
#        56777
#        72981
#        90072
#        105148
#        119668
#        133407
#        148749
#        163084
#
# Disc length: 2435 seconds
#
# Revision: 0
# Processed by: cddbd v1.5.2PL0 Copyright (c) Steve Scherf et al.
# Submitted via: ExactAudioCopyFreeDBPlugin 1.0
#
DISCID=af09810c
DTITLE=The Shires - Good Years
DYEAR=2020
DGENRE=Country
TTITLE0=Lightning Strikes
TTITLE1=On The Day I Die
TTITLE2=Good Years
TTITLE3=No Secrets
TTITLE4=About Last Night
TTITLE5=New Year
TTITLE6=Only Always
TTITLE7=Independence Day
TTITLE8=Thank You Whiskey
TTITLE9=People Like Us
TTITLE10=Better Place
TTITLE11=Crazy Days
EXTD=
EXTT0=
EXTT1=
EXTT2=
EXTT3=
EXTT4=
EXTT5=
EXTT6=
EXTT7=
EXTT8=
EXTT9=
EXTT10=
EXTT11=
PLAYORDER=
